<svg width="523" height="150" viewBox="0 0 523 150" fill="none" xmlns="http://www.w3.org/2000/svg">
<path d="M75 0C116.421 0 150 33.5786 150 75C150 116.421 116.421 150 75 150C33.5786 150 0 116.421 0 75C1.208e-06 33.5786 33.5786 1.20815e-06 75 0ZM75 23.4004C46.8335 23.4004 24 46.2339 24 74.4004C24.0002 102.567 46.8336 125.4 75 125.4C103.166 125.4 126 102.567 126 74.4004C126 46.2339 103.167 23.4004 75 23.4004Z" fill="black" fill-opacity="0.9"/>
<path d="M75.9003 20.4C46.5776 20.4 22.8 44.116 22.8 73.3721C22.8 96.7769 38.0148 116.633 59.1133 123.637C61.767 124.128 62.7415 122.488 62.7415 121.089C62.7415 119.826 62.6919 115.653 62.6695 111.227C47.8965 114.431 44.7793 104.977 44.7793 104.977C42.3639 98.8537 38.8836 97.226 38.8836 97.226C34.066 93.9381 39.2467 94.0054 39.2467 94.0054C44.579 94.3793 47.3868 99.4644 47.3868 99.4644C52.1227 107.563 59.8088 105.221 62.839 103.868C63.3154 100.444 64.6918 98.1076 66.2102 96.7848C54.4161 95.445 42.0174 90.9028 42.0174 70.6056C42.0174 64.8225 44.0918 60.0968 47.4888 56.3872C46.9374 55.0528 45.12 49.6652 48.0031 42.3686C48.0031 42.3686 52.4621 40.9449 62.6095 47.7986C66.8448 46.6245 71.3875 46.0362 75.9003 46.0163C80.413 46.0362 84.959 46.6245 89.2027 47.7986C99.338 40.9449 103.791 42.3686 103.791 42.3686C106.681 49.6652 104.863 55.0528 104.311 56.3872C107.716 60.0968 109.776 64.8221 109.776 70.6056C109.776 90.951 97.354 95.4312 85.53 96.7424C87.4344 98.3863 89.1315 101.61 89.1315 106.552C89.1315 113.64 89.0698 119.344 89.0698 121.089C89.0698 122.499 90.0256 124.151 92.7176 123.63C113.804 116.618 129 96.769 129 73.3721C129 44.116 105.226 20.4 75.9003 20.4Z" fill="#2F2F2F"/>
<path d="M10.1951 73.2922H12.5842C12.7407 73.2922 12.8957 73.2583 13.0402 73.1924C13.1847 73.1265 13.3158 73.0299 13.4262 72.9082C13.5365 72.7866 13.6237 72.6422 13.6829 72.4834C13.7421 72.3246 13.7721 72.1546 13.7711 71.9831V58.8587C13.7721 58.6871 13.7421 58.5171 13.6829 58.3583C13.6237 58.1996 13.5365 58.0552 13.4262 57.9335C13.3158 57.8118 13.1847 57.7153 13.0402 57.6494C12.8957 57.5835 12.7407 57.5496 12.5842 57.5496H10.1951C9.87833 57.5496 9.5745 57.6875 9.35048 57.933C9.12647 58.1785 9.00061 58.5115 9.00061 58.8587V71.9411C8.99548 72.1165 9.02258 72.2913 9.08031 72.455C9.13804 72.6187 9.22522 72.768 9.33665 72.894C9.44809 73.0201 9.58152 73.1203 9.729 73.1887C9.87648 73.2571 10.035 73.2923 10.1951 73.2922Z" fill="white"/>
<path d="M17.2704 72.9817H19.7667C20.0977 72.9817 20.4152 72.8376 20.6492 72.5811C20.8833 72.3245 21.0148 71.9766 21.0148 71.6139V46.9846C21.0168 46.8036 20.986 46.6239 20.9242 46.456C20.8624 46.2881 20.7708 46.1353 20.6547 46.0065C20.5386 45.8777 20.4003 45.7755 20.2479 45.7057C20.0954 45.6359 19.9319 45.6 19.7667 45.6H17.2704C16.9394 45.6 16.6219 45.7441 16.3879 46.0006C16.1538 46.2571 16.0223 46.605 16.0223 46.9678V71.6139C16.0223 71.9766 16.1538 72.3245 16.3879 72.5811C16.6219 72.8376 16.9394 72.9817 17.2704 72.9817Z" fill="white"/>
<path d="M24.7592 72.9817H27.2631C27.5941 72.9817 27.9116 72.8376 28.1456 72.5811C28.3797 72.3245 28.5112 71.9766 28.5112 71.6139V63.3985C28.5112 63.0357 28.3797 62.6878 28.1456 62.4313C27.9116 62.1748 27.5941 62.0307 27.2631 62.0307H24.7592C24.4281 62.0307 24.1107 62.1748 23.8766 62.4313C23.6425 62.6878 23.511 63.0357 23.511 63.3985V71.6139C23.511 71.9766 23.6425 72.3245 23.8766 72.5811C24.1107 72.8376 24.4281 72.9817 24.7592 72.9817Z" fill="white"/>
<path d="M32.2556 72.9817H34.7519C35.0829 72.9817 35.4004 72.8376 35.6344 72.5811C35.8685 72.3245 36 71.9766 36 71.6139V52.4559C36 52.2763 35.9677 52.0984 35.905 51.9324C35.8423 51.7665 35.7503 51.6157 35.6344 51.4887C35.5185 51.3617 35.3809 51.2609 35.2295 51.1922C35.0781 51.1234 34.9158 51.0881 34.7519 51.0881H32.2556C31.9246 51.0881 31.6071 51.2322 31.3731 51.4887C31.139 51.7452 31.0075 52.0931 31.0075 52.4559V71.6139C31.0075 71.9766 31.139 72.3245 31.3731 72.5811C31.6071 72.8376 31.9246 72.9817 32.2556 72.9817Z" fill="white"/>
<path d="M9.00061 75.6H36M10.1951 73.2922H12.5842C12.7407 73.2922 12.8957 73.2583 13.0402 73.1924C13.1847 73.1265 13.3158 73.0299 13.4262 72.9082C13.5365 72.7866 13.6237 72.6422 13.6829 72.4834C13.7421 72.3246 13.7721 72.1546 13.7711 71.9831V58.8587C13.7721 58.6871 13.7421 58.5171 13.6829 58.3583C13.6237 58.1996 13.5365 58.0552 13.4262 57.9335C13.3158 57.8118 13.1847 57.7153 13.0402 57.6494C12.8957 57.5835 12.7407 57.5496 12.5842 57.5496H10.1951C9.87833 57.5496 9.5745 57.6875 9.35048 57.933C9.12647 58.1785 9.00061 58.5115 9.00061 58.8587V71.9411C8.99548 72.1165 9.02258 72.2913 9.08031 72.455C9.13804 72.6187 9.22522 72.768 9.33665 72.894C9.44809 73.0201 9.58152 73.1203 9.729 73.1887C9.87648 73.2571 10.035 73.2923 10.1951 73.2922ZM17.2704 72.9817H19.7667C20.0977 72.9817 20.4152 72.8376 20.6492 72.5811C20.8833 72.3245 21.0148 71.9766 21.0148 71.6139V46.9846C21.0168 46.8036 20.986 46.6239 20.9242 46.456C20.8624 46.2881 20.7708 46.1353 20.6547 46.0065C20.5386 45.8777 20.4003 45.7755 20.2479 45.7057C20.0954 45.6359 19.9319 45.6 19.7667 45.6H17.2704C16.9394 45.6 16.6219 45.7441 16.3879 46.0006C16.1538 46.2571 16.0223 46.605 16.0223 46.9678V71.6139C16.0223 71.9766 16.1538 72.3245 16.3879 72.5811C16.6219 72.8376 16.9394 72.9817 17.2704 72.9817ZM24.7592 72.9817H27.2631C27.5941 72.9817 27.9116 72.8376 28.1456 72.5811C28.3797 72.3245 28.5112 71.9766 28.5112 71.6139V63.3985C28.5112 63.0357 28.3797 62.6878 28.1456 62.4313C27.9116 62.1748 27.5941 62.0307 27.2631 62.0307H24.7592C24.4281 62.0307 24.1107 62.1748 23.8766 62.4313C23.6425 62.6878 23.511 63.0357 23.511 63.3985V71.6139C23.511 71.9766 23.6425 72.3245 23.8766 72.5811C24.1107 72.8376 24.4281 72.9817 24.7592 72.9817ZM32.2556 72.9817H34.7519C35.0829 72.9817 35.4004 72.8376 35.6344 72.5811C35.8685 72.3245 36 71.9766 36 71.6139V52.4559C36 52.2763 35.9677 52.0984 35.905 51.9324C35.8423 51.7665 35.7503 51.6157 35.6344 51.4887C35.5185 51.3617 35.3809 51.2609 35.2295 51.1922C35.0781 51.1234 34.9158 51.0881 34.7519 51.0881H32.2556C31.9246 51.0881 31.6071 51.2322 31.3731 51.4887C31.139 51.7452 31.0075 52.0931 31.0075 52.4559V71.6139C31.0075 71.9766 31.139 72.3245 31.3731 72.5811C31.6071 72.8376 31.9246 72.9817 32.2556 72.9817Z" stroke="white" stroke-width="0.5"/>
<path d="M118.333 102.4C114.651 102.4 111.667 105.385 111.667 109.067M110.788 116.607L105 122.4M107.667 109.067C107.667 114.958 112.442 119.733 118.333 119.733C124.224 119.733 129 114.958 129 109.067C129 103.176 124.224 98.4 118.333 98.4C112.442 98.4 107.667 103.176 107.667 109.067Z" stroke="white" stroke-width="3" stroke-linecap="round" stroke-linejoin="round"/>
<path d="M234.856 63.904V101.056C228.008 103.936 220.52 105.376 212.392 105.376C201.384 105.376 192.616 101.984 186.088 95.2C179.688 88.544 176.488 79.68 176.488 68.608C176.488 57.536 179.784 48.672 186.376 42.016C192.968 35.232 201.672 31.84 212.488 31.84C220.808 31.84 227.368 32.992 232.168 35.296L230.92 45.472C226.248 42.912 220.104 41.632 212.488 41.632C204.616 41.632 198.376 44.16 193.768 49.216C189.288 54.08 187.048 60.544 187.048 68.608C187.048 76.736 189.224 83.232 193.576 88.096C198.056 93.088 204.328 95.584 212.392 95.584C217.576 95.584 221.512 95.072 224.2 94.048V73.696H209.416V63.904H234.856ZM262.803 104.512H252.531V50.752H262.803V104.512ZM262.803 41.536H252.531V29.536H262.803V41.536ZM302.812 104.128C300.38 105.152 297.628 105.664 294.556 105.664C288.476 105.664 284.54 104.032 282.748 100.768C281.404 98.592 280.732 94.4 280.732 88.192V61.024H272.476V51.52H280.732V40.096L291.1 36.736V51.52H301.276V61.024H291.1V90.88C291.1 94.592 292.796 96.448 296.188 96.448C298.428 96.448 300.38 96.032 302.044 95.2L302.812 104.128ZM322.231 104.128H311.767V27.712H322.231V104.128ZM374.839 52.192L355.831 105.28C354.231 109.76 352.567 112.864 350.839 114.592C348.727 116.96 345.911 118.176 342.391 118.24H341.431C338.999 118.24 336.503 117.92 333.943 117.28L334.999 107.68C337.239 108.512 339.063 108.928 340.471 108.928C340.599 108.928 340.855 108.896 341.239 108.832C341.687 108.832 342.263 108.8 342.967 108.736C344.439 108.608 345.783 106.464 346.999 102.304L347.767 99.808L330.391 52.192H340.951L352.567 87.232L364.663 52.192H374.839ZM409.031 104.128C406.599 105.152 403.847 105.664 400.775 105.664C394.695 105.664 390.759 104.032 388.967 100.768C387.623 98.592 386.951 94.4 386.951 88.192V61.024H378.695V51.52H386.951V40.096L397.319 36.736V51.52H407.495V61.024H397.319V90.88C397.319 94.592 399.015 96.448 402.407 96.448C404.647 96.448 406.599 96.032 408.263 95.2L409.031 104.128ZM428.834 104.512H418.562V50.752H428.834V104.512ZM428.834 41.536H418.562V29.536H428.834V41.536ZM479.211 103.648C475.627 104.8 471.051 105.376 465.483 105.376C457.611 105.376 451.403 102.624 446.859 97.12C442.763 92.192 440.715 85.888 440.715 78.208C440.715 70.336 443.083 63.84 447.819 58.72C452.619 53.664 458.667 51.136 465.963 51.136C470.827 51.136 475.243 51.808 479.211 53.152L478.443 62.464C474.667 60.928 470.731 60.16 466.635 60.16C461.643 60.16 457.739 61.824 454.923 65.152C452.171 68.416 450.795 72.768 450.795 78.208C450.795 83.328 452.203 87.648 455.019 91.168C457.771 94.624 461.419 96.352 465.963 96.352C470.123 96.352 474.283 95.584 478.443 94.048L479.211 103.648ZM516.399 62.56C512.175 60.768 508.175 59.872 504.399 59.872C499.087 59.872 496.431 61.952 496.431 66.112C496.431 67.968 498.447 69.888 502.479 71.872C508.303 74.752 512.047 76.864 513.711 78.208C517.679 81.472 519.663 85.504 519.663 90.304C519.663 95.68 517.519 99.744 513.231 102.496C509.839 104.608 505.775 105.664 501.039 105.664C495.279 105.664 490.287 104.8 486.063 103.072L487.023 93.184C491.695 95.488 496.271 96.64 500.751 96.64C503.311 96.64 505.423 95.968 507.087 94.624C508.623 93.408 509.391 91.808 509.391 89.824C509.391 87.264 507.439 84.896 503.535 82.72C499.887 80.736 497.167 79.232 495.375 78.208C493.583 77.184 492.655 76.64 492.591 76.576C488.687 73.632 486.735 70.016 486.735 65.728C486.735 60.48 488.687 56.576 492.591 54.016C495.727 51.968 499.535 50.944 504.015 50.944C509.007 50.944 513.487 51.808 517.455 53.536L516.399 62.56Z" fill="black"/>
</svg>
