<svg width="554" height="200" viewBox="0 0 554 200" fill="none" xmlns="http://www.w3.org/2000/svg">
<path d="M100 0C155.228 0 200 44.7715 200 100C200 155.228 155.228 200 100 200C44.7715 200 0 155.228 0 100C0 44.7715 44.7715 0 100 0ZM100 40C66.8629 40 40 66.8629 40 100C40 133.137 66.8629 160 100 160C133.137 160 160 133.137 160 100C160 66.8629 133.137 40 100 40Z" fill="black" fill-opacity="0.9"/>
<path d="M100 35C66.8673 35 40 63.6901 40 99.0821C40 127.396 57.1919 151.416 81.032 159.89C84.0304 160.483 85.1316 158.5 85.1316 156.807C85.1316 155.279 85.0756 150.231 85.0502 144.876C68.3576 148.753 64.8354 137.315 64.8354 137.315C62.106 129.908 58.1735 127.939 58.1735 127.939C52.7299 123.962 58.5838 124.043 58.5838 124.043C64.609 124.495 67.7816 130.647 67.7816 130.647C73.1329 140.444 81.8178 137.611 85.2417 135.974C85.78 131.832 87.3353 129.006 89.051 127.405C75.7244 125.784 61.7145 120.29 61.7145 95.7354C61.7145 88.7394 64.0584 83.0225 67.8969 78.5349C67.2739 76.9206 65.2203 70.4031 68.4781 61.5762C68.4781 61.5762 73.5165 59.8538 84.9824 68.145C89.7681 66.7247 94.9011 66.013 100 65.9889C105.099 66.013 110.236 66.7247 115.031 68.145C126.484 59.8538 131.515 61.5762 131.515 61.5762C134.781 70.4031 132.726 76.9206 132.103 78.5349C135.95 83.0225 138.278 88.7389 138.278 95.7354C138.278 120.348 124.242 125.768 110.881 127.354C113.033 129.343 114.951 133.243 114.951 139.221C114.951 147.795 114.881 154.696 114.881 156.807C114.881 158.512 115.961 160.511 119.003 159.881C142.83 151.398 160 127.386 160 99.0821C160 63.6901 133.136 35 100 35Z" fill="#2F2F2F"/>
<path d="M15.7706 89.5383H19.3099C19.5418 89.5383 19.7714 89.4874 19.9854 89.3886C20.1995 89.2898 20.3938 89.1449 20.5573 88.9624C20.7207 88.7799 20.85 88.5633 20.9377 88.3252C21.0254 88.087 21.0697 87.8319 21.0682 87.5747V67.888C21.0697 67.6308 21.0254 67.3757 20.9377 67.1375C20.85 66.8994 20.7207 66.6828 20.5573 66.5003C20.3938 66.3178 20.1995 66.1729 19.9854 66.0741C19.7714 65.9753 19.5418 65.9244 19.3099 65.9244H15.7706C15.3012 65.9244 14.8511 66.1313 14.5192 66.4995C14.1874 66.8678 14.0009 67.3672 14.0009 67.888V87.5117C13.9933 87.7748 14.0335 88.037 14.119 88.2825C14.2045 88.5281 14.3337 88.752 14.4987 88.9411C14.6638 89.1302 14.8615 89.2804 15.08 89.383C15.2985 89.4856 15.5333 89.5384 15.7706 89.5383Z" fill="white"/>
<path d="M26.2525 89.0726H29.9506C30.441 89.0726 30.9113 88.8564 31.2581 88.4716C31.6049 88.0869 31.7997 87.565 31.7997 87.0208V50.0769C31.8027 49.8054 31.7571 49.5359 31.6655 49.284C31.5739 49.0322 31.4382 48.803 31.2662 48.6098C31.0942 48.4166 30.8893 48.2632 30.6635 48.1586C30.4377 48.0539 30.1954 48 29.9506 48H26.2525C25.7621 48 25.2917 48.2162 24.945 48.6009C24.5982 48.9857 24.4034 49.5076 24.4034 50.0517V87.0208C24.4034 87.565 24.5982 88.0869 24.945 88.4716C25.2917 88.8564 25.7621 89.0726 26.2525 89.0726Z" fill="white"/>
<path d="M37.3469 89.0726H41.0564C41.5468 89.0726 42.0171 88.8564 42.3639 88.4716C42.7107 88.0868 42.9055 87.565 42.9055 87.0208V74.6978C42.9055 74.1536 42.7107 73.6318 42.3639 73.247C42.0171 72.8622 41.5468 72.646 41.0564 72.646H37.3469C36.8565 72.646 36.3862 72.8622 36.0394 73.247C35.6927 73.6318 35.4978 74.1536 35.4978 74.6978V87.0208C35.4978 87.565 35.6927 88.0868 36.0394 88.4716C36.3862 88.8564 36.8565 89.0726 37.3469 89.0726Z" fill="white"/>
<path d="M48.4528 89.0726H52.1509C52.6413 89.0726 53.1116 88.8564 53.4584 88.4716C53.8052 88.0868 54 87.565 54 87.0208V58.2839C54 58.0144 53.9522 57.7476 53.8592 57.4987C53.7663 57.2498 53.6301 57.0236 53.4584 56.8331C53.2867 56.6425 53.0829 56.4914 52.8585 56.3883C52.6342 56.2852 52.3937 56.2321 52.1509 56.2321H48.4528C47.9623 56.2321 47.492 56.4483 47.1453 56.8331C46.7985 57.2178 46.6037 57.7397 46.6037 58.2839V87.0208C46.6037 87.565 46.7985 88.0868 47.1453 88.4716C47.492 88.8564 47.9623 89.0726 48.4528 89.0726Z" fill="white"/>
<path d="M14.0009 93H54M15.7706 89.5383H19.3099C19.5418 89.5383 19.7714 89.4874 19.9854 89.3886C20.1995 89.2898 20.3938 89.1449 20.5573 88.9624C20.7207 88.7799 20.85 88.5633 20.9377 88.3252C21.0254 88.087 21.0697 87.8319 21.0682 87.5747V67.888C21.0697 67.6308 21.0254 67.3757 20.9377 67.1375C20.85 66.8994 20.7207 66.6828 20.5573 66.5003C20.3938 66.3178 20.1995 66.1729 19.9854 66.0741C19.7714 65.9753 19.5418 65.9244 19.3099 65.9244H15.7706C15.3012 65.9244 14.8511 66.1313 14.5192 66.4995C14.1874 66.8678 14.0009 67.3672 14.0009 67.888V87.5117C13.9933 87.7748 14.0335 88.037 14.119 88.2825C14.2045 88.5281 14.3337 88.752 14.4987 88.9411C14.6638 89.1302 14.8615 89.2804 15.08 89.383C15.2985 89.4856 15.5333 89.5384 15.7706 89.5383ZM26.2525 89.0726H29.9506C30.441 89.0726 30.9113 88.8564 31.2581 88.4716C31.6049 88.0869 31.7997 87.565 31.7997 87.0208V50.0769C31.8027 49.8054 31.7571 49.5359 31.6655 49.284C31.5739 49.0322 31.4382 48.803 31.2662 48.6098C31.0942 48.4166 30.8893 48.2632 30.6635 48.1586C30.4377 48.0539 30.1954 48 29.9506 48H26.2525C25.7621 48 25.2917 48.2162 24.945 48.6009C24.5982 48.9857 24.4034 49.5076 24.4034 50.0517V87.0208C24.4034 87.565 24.5982 88.0869 24.945 88.4716C25.2917 88.8564 25.7621 89.0726 26.2525 89.0726ZM37.3469 89.0726H41.0564C41.5468 89.0726 42.0171 88.8564 42.3639 88.4716C42.7107 88.0868 42.9055 87.565 42.9055 87.0208V74.6978C42.9055 74.1536 42.7107 73.6318 42.3639 73.247C42.0171 72.8622 41.5468 72.646 41.0564 72.646H37.3469C36.8565 72.646 36.3862 72.8622 36.0394 73.247C35.6927 73.6318 35.4978 74.1536 35.4978 74.6978V87.0208C35.4978 87.565 35.6927 88.0868 36.0394 88.4716C36.3862 88.8564 36.8565 89.0726 37.3469 89.0726ZM48.4528 89.0726H52.1509C52.6413 89.0726 53.1116 88.8564 53.4584 88.4716C53.8052 88.0868 54 87.565 54 87.0208V58.2839C54 58.0144 53.9522 57.7476 53.8592 57.4987C53.7663 57.2498 53.6301 57.0236 53.4584 56.8331C53.2867 56.6425 53.0829 56.4914 52.8585 56.3883C52.6342 56.2852 52.3937 56.2321 52.1509 56.2321H48.4528C47.9623 56.2321 47.492 56.4483 47.1453 56.8331C46.7985 57.2178 46.6037 57.7397 46.6037 58.2839V87.0208C46.6037 87.565 46.7985 88.0868 47.1453 88.4716C47.492 88.8564 47.9623 89.0726 48.4528 89.0726Z" stroke="white" stroke-width="0.5"/>
<path d="M153.407 124.968C147.22 124.968 142.203 130.168 142.203 136.582M140.727 149.716L131 159.808M135.481 136.582C135.481 146.844 143.507 155.163 153.407 155.163C163.307 155.163 171.333 146.844 171.333 136.582C171.333 126.319 163.307 118 153.407 118C143.507 118 135.481 126.319 135.481 136.582Z" stroke="white" stroke-width="3" stroke-linecap="round" stroke-linejoin="round"/>
<path d="M265.356 95.904V133.056C258.508 135.936 251.02 137.376 242.892 137.376C231.884 137.376 223.116 133.984 216.588 127.2C210.188 120.544 206.988 111.68 206.988 100.608C206.988 89.536 210.284 80.672 216.876 74.016C223.468 67.232 232.172 63.84 242.988 63.84C251.308 63.84 257.868 64.992 262.668 67.296L261.42 77.472C256.748 74.912 250.604 73.632 242.988 73.632C235.116 73.632 228.876 76.16 224.268 81.216C219.788 86.08 217.548 92.544 217.548 100.608C217.548 108.736 219.724 115.232 224.076 120.096C228.556 125.088 234.828 127.584 242.892 127.584C248.076 127.584 252.012 127.072 254.7 126.048V105.696H239.916V95.904H265.356ZM293.303 136.512H283.031V82.752H293.303V136.512ZM293.303 73.536H283.031V61.536H293.303V73.536ZM333.312 136.128C330.88 137.152 328.128 137.664 325.056 137.664C318.976 137.664 315.04 136.032 313.248 132.768C311.904 130.592 311.232 126.4 311.232 120.192V93.024H302.976V83.52H311.232V72.096L321.6 68.736V83.52H331.776V93.024H321.6V122.88C321.6 126.592 323.296 128.448 326.688 128.448C328.928 128.448 330.88 128.032 332.544 127.2L333.312 136.128ZM352.731 136.128H342.267V59.712H352.731V136.128ZM405.339 84.192L386.331 137.28C384.731 141.76 383.067 144.864 381.339 146.592C379.227 148.96 376.411 150.176 372.891 150.24H371.931C369.499 150.24 367.003 149.92 364.443 149.28L365.499 139.68C367.739 140.512 369.563 140.928 370.971 140.928C371.099 140.928 371.355 140.896 371.739 140.832C372.187 140.832 372.763 140.8 373.467 140.736C374.939 140.608 376.283 138.464 377.499 134.304L378.267 131.808L360.891 84.192H371.451L383.067 119.232L395.163 84.192H405.339ZM439.531 136.128C437.099 137.152 434.347 137.664 431.275 137.664C425.195 137.664 421.259 136.032 419.467 132.768C418.123 130.592 417.451 126.4 417.451 120.192V93.024H409.195V83.52H417.451V72.096L427.819 68.736V83.52H437.995V93.024H427.819V122.88C427.819 126.592 429.515 128.448 432.907 128.448C435.147 128.448 437.099 128.032 438.763 127.2L439.531 136.128ZM459.334 136.512H449.062V82.752H459.334V136.512ZM459.334 73.536H449.062V61.536H459.334V73.536ZM509.711 135.648C506.127 136.8 501.551 137.376 495.983 137.376C488.111 137.376 481.903 134.624 477.359 129.12C473.263 124.192 471.215 117.888 471.215 110.208C471.215 102.336 473.583 95.84 478.319 90.72C483.119 85.664 489.167 83.136 496.463 83.136C501.327 83.136 505.743 83.808 509.711 85.152L508.943 94.464C505.167 92.928 501.231 92.16 497.135 92.16C492.143 92.16 488.239 93.824 485.423 97.152C482.671 100.416 481.295 104.768 481.295 110.208C481.295 115.328 482.703 119.648 485.519 123.168C488.271 126.624 491.919 128.352 496.463 128.352C500.623 128.352 504.783 127.584 508.943 126.048L509.711 135.648ZM546.899 94.56C542.675 92.768 538.675 91.872 534.899 91.872C529.587 91.872 526.931 93.952 526.931 98.112C526.931 99.968 528.947 101.888 532.979 103.872C538.803 106.752 542.547 108.864 544.211 110.208C548.179 113.472 550.163 117.504 550.163 122.304C550.163 127.68 548.019 131.744 543.731 134.496C540.339 136.608 536.275 137.664 531.539 137.664C525.779 137.664 520.787 136.8 516.563 135.072L517.523 125.184C522.195 127.488 526.771 128.64 531.251 128.64C533.811 128.64 535.923 127.968 537.587 126.624C539.123 125.408 539.891 123.808 539.891 121.824C539.891 119.264 537.939 116.896 534.035 114.72C530.387 112.736 527.667 111.232 525.875 110.208C524.083 109.184 523.155 108.64 523.091 108.576C519.187 105.632 517.235 102.016 517.235 97.728C517.235 92.48 519.187 88.576 523.091 86.016C526.227 83.968 530.035 82.944 534.515 82.944C539.507 82.944 543.987 83.808 547.955 85.536L546.899 94.56Z" fill="black"/>
</svg>
